<mxfile host="app.diagrams.net" modified="2021-12-04T15:45:21.087Z" agent="5.0 (X11)" etag="5dWbs2daMZGuQw-mjbYw" version="14.4.9" type="github">
  <diagram id="mLBXY-__REUdw5m0wtvs" name="Page-1">
    <mxGraphModel dx="995" dy="618" grid="1" gridSize="10" guides="1" tooltips="1" connect="1" arrows="1" fold="1" page="1" pageScale="1" pageWidth="850" pageHeight="1100" math="0" shadow="0">
      <root>
        <mxCell id="0" />
        <mxCell id="1" parent="0" />
        <mxCell id="usn-FY_Y-O0AxSJ7w3UN-1" value="CNN" style="shape=trapezoid;perimeter=trapezoidPerimeter;whiteSpace=wrap;html=1;fixedSize=1;" vertex="1" parent="1">
          <mxGeometry x="100" y="250" width="90" height="30" as="geometry" />
        </mxCell>
        <mxCell id="usn-FY_Y-O0AxSJ7w3UN-2" value="CNN" style="shape=trapezoid;perimeter=trapezoidPerimeter;whiteSpace=wrap;html=1;fixedSize=1;" vertex="1" parent="1">
          <mxGeometry x="120" y="250" width="90" height="30" as="geometry" />
        </mxCell>
        <mxCell id="usn-FY_Y-O0AxSJ7w3UN-3" value="CNN" style="shape=trapezoid;perimeter=trapezoidPerimeter;whiteSpace=wrap;html=1;fixedSize=1;" vertex="1" parent="1">
          <mxGeometry x="170" y="250" width="90" height="30" as="geometry" />
        </mxCell>
        <mxCell id="usn-FY_Y-O0AxSJ7w3UN-4" value="" style="endArrow=classic;html=1;" edge="1" parent="1">
          <mxGeometry width="50" height="50" relative="1" as="geometry">
            <mxPoint x="120" y="320" as="sourcePoint" />
            <mxPoint x="120" y="290" as="targetPoint" />
          </mxGeometry>
        </mxCell>
        <mxCell id="usn-FY_Y-O0AxSJ7w3UN-5" value="" style="endArrow=classic;html=1;" edge="1" parent="1">
          <mxGeometry width="50" height="50" relative="1" as="geometry">
            <mxPoint x="137" y="320" as="sourcePoint" />
            <mxPoint x="137" y="290" as="targetPoint" />
          </mxGeometry>
        </mxCell>
        <mxCell id="usn-FY_Y-O0AxSJ7w3UN-6" value="" style="endArrow=classic;html=1;" edge="1" parent="1">
          <mxGeometry width="50" height="50" relative="1" as="geometry">
            <mxPoint x="243" y="320" as="sourcePoint" />
            <mxPoint x="243" y="290" as="targetPoint" />
          </mxGeometry>
        </mxCell>
        <mxCell id="usn-FY_Y-O0AxSJ7w3UN-7" value="V1... (T0)" style="text;html=1;strokeColor=none;fillColor=none;align=center;verticalAlign=middle;whiteSpace=wrap;rounded=0;" vertex="1" parent="1">
          <mxGeometry x="100" y="330" width="40" height="20" as="geometry" />
        </mxCell>
        <mxCell id="usn-FY_Y-O0AxSJ7w3UN-8" value="V1... (T0+1&#39;)" style="text;html=1;strokeColor=none;fillColor=none;align=center;verticalAlign=middle;whiteSpace=wrap;rounded=0;" vertex="1" parent="1">
          <mxGeometry x="220" y="330" width="40" height="20" as="geometry" />
        </mxCell>
        <mxCell id="usn-FY_Y-O0AxSJ7w3UN-9" value="" style="endArrow=classic;html=1;" edge="1" parent="1">
          <mxGeometry width="50" height="50" relative="1" as="geometry">
            <mxPoint x="121" y="245" as="sourcePoint" />
            <mxPoint x="121" y="215" as="targetPoint" />
          </mxGeometry>
        </mxCell>
        <mxCell id="usn-FY_Y-O0AxSJ7w3UN-10" value="" style="endArrow=classic;html=1;" edge="1" parent="1">
          <mxGeometry width="50" height="50" relative="1" as="geometry">
            <mxPoint x="138" y="245" as="sourcePoint" />
            <mxPoint x="138" y="215" as="targetPoint" />
          </mxGeometry>
        </mxCell>
        <mxCell id="usn-FY_Y-O0AxSJ7w3UN-11" value="" style="endArrow=classic;html=1;" edge="1" parent="1">
          <mxGeometry width="50" height="50" relative="1" as="geometry">
            <mxPoint x="244" y="245" as="sourcePoint" />
            <mxPoint x="244" y="215" as="targetPoint" />
          </mxGeometry>
        </mxCell>
        <mxCell id="usn-FY_Y-O0AxSJ7w3UN-13" value="" style="ellipse;whiteSpace=wrap;html=1;aspect=fixed;" vertex="1" parent="1">
          <mxGeometry x="110" y="180" width="20" height="20" as="geometry" />
        </mxCell>
        <mxCell id="usn-FY_Y-O0AxSJ7w3UN-14" value="" style="ellipse;whiteSpace=wrap;html=1;aspect=fixed;" vertex="1" parent="1">
          <mxGeometry x="230" y="180" width="20" height="20" as="geometry" />
        </mxCell>
        <mxCell id="usn-FY_Y-O0AxSJ7w3UN-15" value="" style="endArrow=classic;html=1;exitX=1;exitY=0.5;exitDx=0;exitDy=0;entryX=0;entryY=0.5;entryDx=0;entryDy=0;" edge="1" parent="1" source="usn-FY_Y-O0AxSJ7w3UN-13" target="usn-FY_Y-O0AxSJ7w3UN-14">
          <mxGeometry width="50" height="50" relative="1" as="geometry">
            <mxPoint x="400" y="360" as="sourcePoint" />
            <mxPoint x="450" y="310" as="targetPoint" />
          </mxGeometry>
        </mxCell>
        <mxCell id="usn-FY_Y-O0AxSJ7w3UN-16" value="LSTM" style="text;html=1;strokeColor=none;fillColor=none;align=center;verticalAlign=middle;whiteSpace=wrap;rounded=0;" vertex="1" parent="1">
          <mxGeometry x="50" y="180" width="40" height="20" as="geometry" />
        </mxCell>
        <mxCell id="usn-FY_Y-O0AxSJ7w3UN-17" value="" style="endArrow=classic;html=1;exitX=1;exitY=0.5;exitDx=0;exitDy=0;" edge="1" parent="1">
          <mxGeometry width="50" height="50" relative="1" as="geometry">
            <mxPoint x="250" y="220" as="sourcePoint" />
            <mxPoint x="290" y="220" as="targetPoint" />
          </mxGeometry>
        </mxCell>
        <mxCell id="usn-FY_Y-O0AxSJ7w3UN-18" value="" style="rounded=0;whiteSpace=wrap;html=1;" vertex="1" parent="1">
          <mxGeometry x="290" y="190" width="10" height="60" as="geometry" />
        </mxCell>
        <mxCell id="usn-FY_Y-O0AxSJ7w3UN-19" value="" style="endArrow=classic;html=1;exitX=1;exitY=0.5;exitDx=0;exitDy=0;" edge="1" parent="1">
          <mxGeometry width="50" height="50" relative="1" as="geometry">
            <mxPoint x="305" y="220" as="sourcePoint" />
            <mxPoint x="345" y="220" as="targetPoint" />
          </mxGeometry>
        </mxCell>
        <mxCell id="usn-FY_Y-O0AxSJ7w3UN-20" value="" style="ellipse;whiteSpace=wrap;html=1;aspect=fixed;" vertex="1" parent="1">
          <mxGeometry x="370" y="210" width="20" height="20" as="geometry" />
        </mxCell>
        <mxCell id="usn-FY_Y-O0AxSJ7w3UN-21" value="" style="ellipse;whiteSpace=wrap;html=1;aspect=fixed;" vertex="1" parent="1">
          <mxGeometry x="490" y="210" width="20" height="20" as="geometry" />
        </mxCell>
        <mxCell id="usn-FY_Y-O0AxSJ7w3UN-22" value="" style="endArrow=classic;html=1;exitX=1;exitY=0.5;exitDx=0;exitDy=0;entryX=0;entryY=0.5;entryDx=0;entryDy=0;" edge="1" parent="1" source="usn-FY_Y-O0AxSJ7w3UN-20" target="usn-FY_Y-O0AxSJ7w3UN-21">
          <mxGeometry width="50" height="50" relative="1" as="geometry">
            <mxPoint x="660" y="390" as="sourcePoint" />
            <mxPoint x="710" y="340" as="targetPoint" />
          </mxGeometry>
        </mxCell>
        <mxCell id="usn-FY_Y-O0AxSJ7w3UN-23" value="" style="endArrow=classic;html=1;" edge="1" parent="1">
          <mxGeometry width="50" height="50" relative="1" as="geometry">
            <mxPoint x="378" y="202" as="sourcePoint" />
            <mxPoint x="378" y="172" as="targetPoint" />
          </mxGeometry>
        </mxCell>
        <mxCell id="usn-FY_Y-O0AxSJ7w3UN-25" value="" style="endArrow=classic;html=1;" edge="1" parent="1">
          <mxGeometry width="50" height="50" relative="1" as="geometry">
            <mxPoint x="501" y="202" as="sourcePoint" />
            <mxPoint x="501" y="172" as="targetPoint" />
          </mxGeometry>
        </mxCell>
        <mxCell id="usn-FY_Y-O0AxSJ7w3UN-26" value="W2... (T0+d)" style="text;html=1;strokeColor=none;fillColor=none;align=center;verticalAlign=middle;whiteSpace=wrap;rounded=0;" vertex="1" parent="1">
          <mxGeometry x="364" y="144" width="40" height="20" as="geometry" />
        </mxCell>
        <mxCell id="usn-FY_Y-O0AxSJ7w3UN-27" value="W2 (T0+d)" style="text;html=1;strokeColor=none;fillColor=none;align=center;verticalAlign=middle;whiteSpace=wrap;rounded=0;" vertex="1" parent="1">
          <mxGeometry x="484" y="144" width="40" height="20" as="geometry" />
        </mxCell>
        <mxCell id="usn-FY_Y-O0AxSJ7w3UN-28" value="" style="endArrow=classic;html=1;" edge="1" parent="1">
          <mxGeometry width="50" height="50" relative="1" as="geometry">
            <mxPoint x="380" y="240" as="sourcePoint" />
            <mxPoint x="380" y="270" as="targetPoint" />
          </mxGeometry>
        </mxCell>
        <mxCell id="usn-FY_Y-O0AxSJ7w3UN-29" value="" style="endArrow=classic;html=1;" edge="1" parent="1">
          <mxGeometry width="50" height="50" relative="1" as="geometry">
            <mxPoint x="501" y="240" as="sourcePoint" />
            <mxPoint x="501" y="270" as="targetPoint" />
          </mxGeometry>
        </mxCell>
        <mxCell id="usn-FY_Y-O0AxSJ7w3UN-30" value="d" style="text;html=1;strokeColor=none;fillColor=none;align=center;verticalAlign=middle;whiteSpace=wrap;rounded=0;" vertex="1" parent="1">
          <mxGeometry x="360" y="254" width="40" height="20" as="geometry" />
        </mxCell>
        <mxCell id="usn-FY_Y-O0AxSJ7w3UN-31" value="d" style="text;html=1;strokeColor=none;fillColor=none;align=center;verticalAlign=middle;whiteSpace=wrap;rounded=0;" vertex="1" parent="1">
          <mxGeometry x="480" y="254" width="40" height="20" as="geometry" />
        </mxCell>
        <mxCell id="usn-FY_Y-O0AxSJ7w3UN-32" value="" style="endArrow=classic;html=1;" edge="1" parent="1">
          <mxGeometry width="50" height="50" relative="1" as="geometry">
            <mxPoint x="130" y="660" as="sourcePoint" />
            <mxPoint x="130" y="630" as="targetPoint" />
          </mxGeometry>
        </mxCell>
        <mxCell id="usn-FY_Y-O0AxSJ7w3UN-34" value="" style="endArrow=classic;html=1;" edge="1" parent="1">
          <mxGeometry width="50" height="50" relative="1" as="geometry">
            <mxPoint x="253" y="660" as="sourcePoint" />
            <mxPoint x="253" y="630" as="targetPoint" />
          </mxGeometry>
        </mxCell>
        <mxCell id="usn-FY_Y-O0AxSJ7w3UN-35" value="V1... (T0)" style="text;html=1;strokeColor=none;fillColor=none;align=center;verticalAlign=middle;whiteSpace=wrap;rounded=0;" vertex="1" parent="1">
          <mxGeometry x="110" y="670" width="40" height="20" as="geometry" />
        </mxCell>
        <mxCell id="usn-FY_Y-O0AxSJ7w3UN-36" value="V1... (T0+1&#39;)" style="text;html=1;strokeColor=none;fillColor=none;align=center;verticalAlign=middle;whiteSpace=wrap;rounded=0;" vertex="1" parent="1">
          <mxGeometry x="230" y="670" width="40" height="20" as="geometry" />
        </mxCell>
        <mxCell id="usn-FY_Y-O0AxSJ7w3UN-37" value="MLP" style="shape=trapezoid;perimeter=trapezoidPerimeter;whiteSpace=wrap;html=1;fixedSize=1;size=10;" vertex="1" parent="1">
          <mxGeometry x="225" y="599" width="50" height="30" as="geometry" />
        </mxCell>
        <mxCell id="usn-FY_Y-O0AxSJ7w3UN-38" value="MLP" style="shape=trapezoid;perimeter=trapezoidPerimeter;whiteSpace=wrap;html=1;fixedSize=1;size=10;" vertex="1" parent="1">
          <mxGeometry x="106" y="600" width="50" height="30" as="geometry" />
        </mxCell>
        <mxCell id="usn-FY_Y-O0AxSJ7w3UN-39" value="" style="endArrow=classic;html=1;" edge="1" parent="1">
          <mxGeometry width="50" height="50" relative="1" as="geometry">
            <mxPoint x="130" y="594" as="sourcePoint" />
            <mxPoint x="130" y="564" as="targetPoint" />
          </mxGeometry>
        </mxCell>
        <mxCell id="usn-FY_Y-O0AxSJ7w3UN-40" value="" style="endArrow=classic;html=1;" edge="1" parent="1">
          <mxGeometry width="50" height="50" relative="1" as="geometry">
            <mxPoint x="253" y="594" as="sourcePoint" />
            <mxPoint x="253" y="564" as="targetPoint" />
          </mxGeometry>
        </mxCell>
        <mxCell id="usn-FY_Y-O0AxSJ7w3UN-41" value="pooling per dim." style="rounded=0;whiteSpace=wrap;html=1;" vertex="1" parent="1">
          <mxGeometry x="106" y="530" width="164" height="20" as="geometry" />
        </mxCell>
        <mxCell id="usn-FY_Y-O0AxSJ7w3UN-42" value="" style="endArrow=classic;html=1;" edge="1" parent="1">
          <mxGeometry width="50" height="50" relative="1" as="geometry">
            <mxPoint x="190" y="524" as="sourcePoint" />
            <mxPoint x="190" y="460" as="targetPoint" />
          </mxGeometry>
        </mxCell>
        <mxCell id="usn-FY_Y-O0AxSJ7w3UN-44" value="" style="ellipse;whiteSpace=wrap;html=1;aspect=fixed;" vertex="1" parent="1">
          <mxGeometry x="370" y="450" width="20" height="20" as="geometry" />
        </mxCell>
        <mxCell id="usn-FY_Y-O0AxSJ7w3UN-45" value="" style="ellipse;whiteSpace=wrap;html=1;aspect=fixed;" vertex="1" parent="1">
          <mxGeometry x="490" y="450" width="20" height="20" as="geometry" />
        </mxCell>
        <mxCell id="usn-FY_Y-O0AxSJ7w3UN-46" value="" style="endArrow=classic;html=1;exitX=1;exitY=0.5;exitDx=0;exitDy=0;entryX=0;entryY=0.5;entryDx=0;entryDy=0;" edge="1" parent="1" source="usn-FY_Y-O0AxSJ7w3UN-44" target="usn-FY_Y-O0AxSJ7w3UN-45">
          <mxGeometry width="50" height="50" relative="1" as="geometry">
            <mxPoint x="660" y="630" as="sourcePoint" />
            <mxPoint x="710" y="580" as="targetPoint" />
          </mxGeometry>
        </mxCell>
        <mxCell id="usn-FY_Y-O0AxSJ7w3UN-47" value="" style="endArrow=classic;html=1;" edge="1" parent="1">
          <mxGeometry width="50" height="50" relative="1" as="geometry">
            <mxPoint x="378" y="442" as="sourcePoint" />
            <mxPoint x="378" y="412" as="targetPoint" />
          </mxGeometry>
        </mxCell>
        <mxCell id="usn-FY_Y-O0AxSJ7w3UN-48" value="" style="endArrow=classic;html=1;" edge="1" parent="1">
          <mxGeometry width="50" height="50" relative="1" as="geometry">
            <mxPoint x="501" y="442" as="sourcePoint" />
            <mxPoint x="501" y="412" as="targetPoint" />
          </mxGeometry>
        </mxCell>
        <mxCell id="usn-FY_Y-O0AxSJ7w3UN-49" value="W2... (T0+d)" style="text;html=1;strokeColor=none;fillColor=none;align=center;verticalAlign=middle;whiteSpace=wrap;rounded=0;" vertex="1" parent="1">
          <mxGeometry x="364" y="384" width="40" height="20" as="geometry" />
        </mxCell>
        <mxCell id="usn-FY_Y-O0AxSJ7w3UN-50" value="W2 (T0+d)" style="text;html=1;strokeColor=none;fillColor=none;align=center;verticalAlign=middle;whiteSpace=wrap;rounded=0;" vertex="1" parent="1">
          <mxGeometry x="484" y="384" width="40" height="20" as="geometry" />
        </mxCell>
        <mxCell id="usn-FY_Y-O0AxSJ7w3UN-51" value="" style="endArrow=classic;html=1;" edge="1" parent="1">
          <mxGeometry width="50" height="50" relative="1" as="geometry">
            <mxPoint x="380" y="480" as="sourcePoint" />
            <mxPoint x="380" y="510" as="targetPoint" />
          </mxGeometry>
        </mxCell>
        <mxCell id="usn-FY_Y-O0AxSJ7w3UN-52" value="" style="endArrow=classic;html=1;" edge="1" parent="1">
          <mxGeometry width="50" height="50" relative="1" as="geometry">
            <mxPoint x="501" y="480" as="sourcePoint" />
            <mxPoint x="501" y="510" as="targetPoint" />
          </mxGeometry>
        </mxCell>
        <mxCell id="usn-FY_Y-O0AxSJ7w3UN-53" value="d" style="text;html=1;strokeColor=none;fillColor=none;align=center;verticalAlign=middle;whiteSpace=wrap;rounded=0;" vertex="1" parent="1">
          <mxGeometry x="360" y="494" width="40" height="20" as="geometry" />
        </mxCell>
        <mxCell id="usn-FY_Y-O0AxSJ7w3UN-54" value="d" style="text;html=1;strokeColor=none;fillColor=none;align=center;verticalAlign=middle;whiteSpace=wrap;rounded=0;" vertex="1" parent="1">
          <mxGeometry x="480" y="494" width="40" height="20" as="geometry" />
        </mxCell>
        <mxCell id="usn-FY_Y-O0AxSJ7w3UN-55" value="" style="rounded=0;whiteSpace=wrap;html=1;" vertex="1" parent="1">
          <mxGeometry x="290" y="430" width="10" height="60" as="geometry" />
        </mxCell>
        <mxCell id="usn-FY_Y-O0AxSJ7w3UN-56" value="" style="endArrow=classic;html=1;exitX=1;exitY=0.5;exitDx=0;exitDy=0;" edge="1" parent="1">
          <mxGeometry width="50" height="50" relative="1" as="geometry">
            <mxPoint x="305" y="460" as="sourcePoint" />
            <mxPoint x="345" y="460" as="targetPoint" />
          </mxGeometry>
        </mxCell>
        <mxCell id="usn-FY_Y-O0AxSJ7w3UN-57" value="" style="endArrow=classic;html=1;" edge="1" parent="1">
          <mxGeometry width="50" height="50" relative="1" as="geometry">
            <mxPoint x="190" y="460" as="sourcePoint" />
            <mxPoint x="280" y="460" as="targetPoint" />
          </mxGeometry>
        </mxCell>
        <mxCell id="usn-FY_Y-O0AxSJ7w3UN-58" value="" style="endArrow=classic;html=1;" edge="1" parent="1">
          <mxGeometry width="50" height="50" relative="1" as="geometry">
            <mxPoint x="133" y="1050" as="sourcePoint" />
            <mxPoint x="133" y="1020" as="targetPoint" />
          </mxGeometry>
        </mxCell>
        <mxCell id="usn-FY_Y-O0AxSJ7w3UN-59" value="" style="endArrow=classic;html=1;" edge="1" parent="1">
          <mxGeometry width="50" height="50" relative="1" as="geometry">
            <mxPoint x="256" y="1050" as="sourcePoint" />
            <mxPoint x="256" y="1020" as="targetPoint" />
          </mxGeometry>
        </mxCell>
        <mxCell id="usn-FY_Y-O0AxSJ7w3UN-60" value="V1... (T0-D)" style="text;html=1;strokeColor=none;fillColor=none;align=center;verticalAlign=middle;whiteSpace=wrap;rounded=0;" vertex="1" parent="1">
          <mxGeometry x="113" y="1060" width="40" height="20" as="geometry" />
        </mxCell>
        <mxCell id="usn-FY_Y-O0AxSJ7w3UN-61" value="V1... (T0-F)" style="text;html=1;strokeColor=none;fillColor=none;align=center;verticalAlign=middle;whiteSpace=wrap;rounded=0;" vertex="1" parent="1">
          <mxGeometry x="233" y="1060" width="40" height="20" as="geometry" />
        </mxCell>
        <mxCell id="usn-FY_Y-O0AxSJ7w3UN-62" value="MLP" style="shape=trapezoid;perimeter=trapezoidPerimeter;whiteSpace=wrap;html=1;fixedSize=1;size=10;" vertex="1" parent="1">
          <mxGeometry x="228" y="989" width="50" height="30" as="geometry" />
        </mxCell>
        <mxCell id="usn-FY_Y-O0AxSJ7w3UN-63" value="MLP" style="shape=trapezoid;perimeter=trapezoidPerimeter;whiteSpace=wrap;html=1;fixedSize=1;size=10;" vertex="1" parent="1">
          <mxGeometry x="109" y="990" width="50" height="30" as="geometry" />
        </mxCell>
        <mxCell id="usn-FY_Y-O0AxSJ7w3UN-64" value="" style="endArrow=classic;html=1;" edge="1" parent="1">
          <mxGeometry width="50" height="50" relative="1" as="geometry">
            <mxPoint x="133" y="984" as="sourcePoint" />
            <mxPoint x="133" y="954" as="targetPoint" />
          </mxGeometry>
        </mxCell>
        <mxCell id="usn-FY_Y-O0AxSJ7w3UN-65" value="" style="endArrow=classic;html=1;" edge="1" parent="1">
          <mxGeometry width="50" height="50" relative="1" as="geometry">
            <mxPoint x="256" y="984" as="sourcePoint" />
            <mxPoint x="256" y="954" as="targetPoint" />
          </mxGeometry>
        </mxCell>
        <mxCell id="usn-FY_Y-O0AxSJ7w3UN-66" value="pooling per dim." style="rounded=0;whiteSpace=wrap;html=1;" vertex="1" parent="1">
          <mxGeometry x="109" y="920" width="164" height="20" as="geometry" />
        </mxCell>
        <mxCell id="usn-FY_Y-O0AxSJ7w3UN-67" value="" style="endArrow=classic;html=1;" edge="1" parent="1">
          <mxGeometry width="50" height="50" relative="1" as="geometry">
            <mxPoint x="193" y="914" as="sourcePoint" />
            <mxPoint x="193" y="880" as="targetPoint" />
          </mxGeometry>
        </mxCell>
        <mxCell id="usn-FY_Y-O0AxSJ7w3UN-82" value="MLP" style="shape=trapezoid;perimeter=trapezoidPerimeter;whiteSpace=wrap;html=1;fixedSize=1;size=10;" vertex="1" parent="1">
          <mxGeometry x="168" y="845" width="50" height="30" as="geometry" />
        </mxCell>
        <mxCell id="usn-FY_Y-O0AxSJ7w3UN-83" value="" style="endArrow=classic;html=1;" edge="1" parent="1">
          <mxGeometry width="50" height="50" relative="1" as="geometry">
            <mxPoint x="193" y="839" as="sourcePoint" />
            <mxPoint x="193" y="805" as="targetPoint" />
          </mxGeometry>
        </mxCell>
        <mxCell id="usn-FY_Y-O0AxSJ7w3UN-84" value="Y" style="text;html=1;strokeColor=none;fillColor=none;align=center;verticalAlign=middle;whiteSpace=wrap;rounded=0;" vertex="1" parent="1">
          <mxGeometry x="171" y="780" width="40" height="20" as="geometry" />
        </mxCell>
      </root>
    </mxGraphModel>
  </diagram>
</mxfile>
